<?xml version="1.0" encoding="UTF-8" standalone="no"?>
<!-- Created with Inkscape (http://www.inkscape.org/) -->

<svg
   xmlns:dc="http://purl.org/dc/elements/1.1/"
   xmlns:cc="http://creativecommons.org/ns#"
   xmlns:rdf="http://www.w3.org/1999/02/22-rdf-syntax-ns#"
   xmlns:svg="http://www.w3.org/2000/svg"
   xmlns="http://www.w3.org/2000/svg"
   xmlns:sodipodi="http://sodipodi.sourceforge.net/DTD/sodipodi-0.dtd"
   xmlns:inkscape="http://www.inkscape.org/namespaces/inkscape"
   width="64"
   height="64"
   viewBox="0 0 16.933333 16.933334"
   version="1.1"
   id="svg8"
   inkscape:version="0.92.4 (5da689c313, 2019-01-14)"
   sodipodi:docname="delete.svg">
  <defs
     id="defs2" />
  <sodipodi:namedview
     id="base"
     pagecolor="#ffffff"
     bordercolor="#666666"
     borderopacity="1.0"
     inkscape:pageopacity="0.0"
     inkscape:pageshadow="2"
     inkscape:zoom="8.0000004"
     inkscape:cx="50.679309"
     inkscape:cy="20.375762"
     inkscape:document-units="mm"
     inkscape:current-layer="layer1"
     showgrid="true"
     units="px"
     inkscape:window-width="1920"
     inkscape:window-height="1001"
     inkscape:window-x="-9"
     inkscape:window-y="-9"
     inkscape:window-maximized="1"
     inkscape:object-paths="false"
     inkscape:snap-grids="true"
     inkscape:snap-intersection-paths="true">
    <inkscape:grid
       type="xygrid"
       id="grid815"
       spacingx="0.26458334"
       spacingy="0.26458334"
       empspacing="8" />
  </sodipodi:namedview>
  <metadata
     id="metadata5">
    <rdf:RDF>
      <cc:Work
         rdf:about="">
        <dc:format>image/svg+xml</dc:format>
        <dc:type
           rdf:resource="http://purl.org/dc/dcmitype/StillImage" />
        <dc:title></dc:title>
      </cc:Work>
    </rdf:RDF>
  </metadata>
  <g
     inkscape:label="Layer 1"
     inkscape:groupmode="layer"
     id="layer1"
     transform="translate(0,-280.06665)">
    <path
       style="fill:#000000;fill-opacity:1;stroke:none;stroke-width:1.00157475;stroke-linecap:butt;stroke-linejoin:miter;stroke-miterlimit:4;stroke-dasharray:none;stroke-opacity:1"
       d="M 30.5 9.0683594 A 1.9999999 1.9999999 0 0 0 29.964844 9.1367188 A 1.9999999 1.9999999 0 0 0 28.550781 11.585938 A 1.9999999 1.9999999 0 0 0 29.302734 12.681641 C 26.698943 13.998957 13.489995 17.198121 14.648438 21.521484 L 49.421875 12.205078 C 48.263155 7.8806939 35.218049 11.717684 32.308594 11.876953 A 1.9999999 1.9999999 0 0 0 32.414062 10.550781 A 1.9999999 1.9999999 0 0 0 30.5 9.0683594 z M 16 24 L 20 56 L 44 56 L 48 24 L 16 24 z M 22 27 L 24 27 L 25.998047 53.001953 L 23.998047 53.001953 L 22 27 z M 40 27 L 42 27 L 40.001953 53.001953 L 38.001953 53.001953 L 40 27 z M 30.996094 27.001953 L 32.996094 27.001953 L 32.996094 53.001953 L 30.996094 53.001953 L 30.996094 27.001953 z "
       transform="matrix(0.26458333,0,0,0.26458333,0,280.06665)"
       id="path1951" />
  </g>
</svg>
