<?xml version="1.0" encoding="UTF-8" standalone="no"?>
<!-- Created with Inkscape (http://www.inkscape.org/) -->

<svg
   xmlns:dc="http://purl.org/dc/elements/1.1/"
   xmlns:cc="http://creativecommons.org/ns#"
   xmlns:rdf="http://www.w3.org/1999/02/22-rdf-syntax-ns#"
   xmlns:svg="http://www.w3.org/2000/svg"
   xmlns="http://www.w3.org/2000/svg"
   xmlns:sodipodi="http://sodipodi.sourceforge.net/DTD/sodipodi-0.dtd"
   xmlns:inkscape="http://www.inkscape.org/namespaces/inkscape"
   width="64"
   height="64"
   viewBox="0 0 16.933333 16.933334"
   version="1.1"
   id="svg8"
   inkscape:version="0.92.4 (5da689c313, 2019-01-14)"
   sodipodi:docname="save_as.svg">
  <defs
     id="defs2" />
  <sodipodi:namedview
     id="base"
     pagecolor="#ffffff"
     bordercolor="#666666"
     borderopacity="1.0"
     inkscape:pageopacity="0.0"
     inkscape:pageshadow="2"
     inkscape:zoom="8"
     inkscape:cx="8.7752838"
     inkscape:cy="36.21149"
     inkscape:document-units="mm"
     inkscape:current-layer="layer1"
     showgrid="true"
     units="px"
     inkscape:window-width="1920"
     inkscape:window-height="1001"
     inkscape:window-x="-9"
     inkscape:window-y="-9"
     inkscape:window-maximized="1"
     inkscape:object-paths="false"
     inkscape:snap-grids="true"
     inkscape:snap-intersection-paths="true">
    <inkscape:grid
       type="xygrid"
       id="grid815"
       spacingx="0.26458334"
       spacingy="0.26458334"
       empspacing="8" />
  </sodipodi:namedview>
  <metadata
     id="metadata5">
    <rdf:RDF>
      <cc:Work
         rdf:about="">
        <dc:format>image/svg+xml</dc:format>
        <dc:type
           rdf:resource="http://purl.org/dc/dcmitype/StillImage" />
        <dc:title></dc:title>
      </cc:Work>
    </rdf:RDF>
  </metadata>
  <g
     inkscape:label="Layer 1"
     inkscape:groupmode="layer"
     id="layer1"
     transform="translate(0,-280.06665)">
    <path
       style="fill:#000000;fill-opacity:1;stroke:none;stroke-width:0.99999994px;stroke-linecap:butt;stroke-linejoin:miter;stroke-opacity:1"
       d="M 16 8 L 16 56 L 48 56 L 48 17 L 39 17 L 39 8 L 16 8 z M 41 9 L 41 15 L 47 15 L 41 9 z M 22.650391 27.998047 L 25.351562 27.998047 L 25.351562 40 L 27 40 L 24 44 L 21 40 L 22.650391 40 L 22.650391 27.998047 z M 30.5 38 A 1.5 1.5 0 0 1 32 39.5 A 1.5 1.5 0 0 1 30.5 41 A 1.5 1.5 0 0 1 29 39.5 A 1.5 1.5 0 0 1 30.5 38 z M 35.5 38 A 1.5 1.5 0 0 1 37 39.5 A 1.5 1.5 0 0 1 35.5 41 A 1.5 1.5 0 0 1 34 39.5 A 1.5 1.5 0 0 1 35.5 38 z M 40.5 38 A 1.5 1.5 0 0 1 42 39.5 A 1.5 1.5 0 0 1 40.5 41 A 1.5 1.5 0 0 1 39 39.5 A 1.5 1.5 0 0 1 40.5 38 z "
       transform="matrix(0.26458333,0,0,0.26458333,0,280.06665)"
       id="path904" />
  </g>
</svg>
