<?xml version="1.0" encoding="UTF-8" standalone="no"?>
<!-- Created with Inkscape (http://www.inkscape.org/) -->

<svg
   xmlns:dc="http://purl.org/dc/elements/1.1/"
   xmlns:cc="http://creativecommons.org/ns#"
   xmlns:rdf="http://www.w3.org/1999/02/22-rdf-syntax-ns#"
   xmlns:svg="http://www.w3.org/2000/svg"
   xmlns="http://www.w3.org/2000/svg"
   xmlns:sodipodi="http://sodipodi.sourceforge.net/DTD/sodipodi-0.dtd"
   xmlns:inkscape="http://www.inkscape.org/namespaces/inkscape"
   width="64"
   height="64"
   viewBox="0 0 16.933333 16.933334"
   version="1.1"
   id="svg8"
   inkscape:version="0.92.4 (5da689c313, 2019-01-14)"
   sodipodi:docname="settings.svg">
  <defs
     id="defs2" />
  <sodipodi:namedview
     id="base"
     pagecolor="#ffffff"
     bordercolor="#666666"
     borderopacity="1.0"
     inkscape:pageopacity="0.0"
     inkscape:pageshadow="2"
     inkscape:zoom="11.313708"
     inkscape:cx="41.290538"
     inkscape:cy="26.185797"
     inkscape:document-units="mm"
     inkscape:current-layer="layer1"
     showgrid="true"
     units="px"
     inkscape:window-width="1920"
     inkscape:window-height="1001"
     inkscape:window-x="-9"
     inkscape:window-y="-9"
     inkscape:window-maximized="1"
     inkscape:object-paths="false"
     inkscape:snap-grids="true"
     inkscape:snap-intersection-paths="true">
    <inkscape:grid
       type="xygrid"
       id="grid815"
       spacingx="0.26458334"
       spacingy="0.26458334"
       empspacing="8" />
  </sodipodi:namedview>
  <metadata
     id="metadata5">
    <rdf:RDF>
      <cc:Work
         rdf:about="">
        <dc:format>image/svg+xml</dc:format>
        <dc:type
           rdf:resource="http://purl.org/dc/dcmitype/StillImage" />
        <dc:title></dc:title>
      </cc:Work>
    </rdf:RDF>
  </metadata>
  <g
     inkscape:label="Layer 1"
     inkscape:groupmode="layer"
     id="layer1"
     transform="translate(0,-280.06665)">
    <path
       style="fill:#000000;fill-opacity:1;stroke:none;stroke-width:1.5;stroke-miterlimit:4;stroke-dasharray:none;stroke-opacity:1;paint-order:markers stroke fill"
       d="M 27 6 L 25.583984 13.083984 A 19.999999 19.999999 0 0 0 18.826172 16.984375 L 11.982422 14.669922 L 6.9824219 23.330078 L 12.390625 28.082031 A 19.999999 19.999999 0 0 0 12 32 A 19.999999 19.999999 0 0 0 12.404297 35.90625 L 6.9824219 40.669922 L 11.982422 49.330078 L 18.816406 47.019531 A 19.999999 19.999999 0 0 0 25.583984 50.923828 L 27 58 L 37 58 L 38.416016 50.916016 A 19.999999 19.999999 0 0 0 45.173828 47.015625 L 52.017578 49.330078 L 57.017578 40.669922 L 51.609375 35.917969 A 19.999999 19.999999 0 0 0 52 32 A 19.999999 19.999999 0 0 0 51.595703 28.09375 L 57.017578 23.330078 L 52.017578 14.669922 L 45.183594 16.980469 A 19.999999 19.999999 0 0 0 38.416016 13.076172 L 37 6 L 27 6 z M 34.3125 23.308594 A 8.9999996 8.9999996 0 0 1 38.371094 25.648438 L 38.005859 26.728516 A 7.9999997 7.9999997 0 0 1 38.927734 28 A 7.9999997 7.9999997 0 0 1 39.576172 29.435547 L 40.677734 29.65625 A 8.9999996 8.9999996 0 0 1 40.683594 34.341797 L 39.566406 34.566406 A 7.9999997 7.9999997 0 0 1 38.005859 37.269531 L 38.371094 38.351562 A 8.9999996 8.9999996 0 0 1 36.5 39.794922 A 8.9999996 8.9999996 0 0 1 34.308594 40.6875 L 33.5625 39.839844 A 7.9999997 7.9999997 0 0 1 30.4375 39.839844 L 29.6875 40.691406 A 8.9999996 8.9999996 0 0 1 25.628906 38.351562 L 25.994141 37.271484 A 7.9999997 7.9999997 0 0 1 25.072266 36 A 7.9999997 7.9999997 0 0 1 24.423828 34.564453 L 23.322266 34.34375 A 8.9999996 8.9999996 0 0 1 23.316406 29.658203 L 24.433594 29.433594 A 7.9999997 7.9999997 0 0 1 25.994141 26.730469 L 25.628906 25.646484 A 8.9999996 8.9999996 0 0 1 27.5 24.205078 A 8.9999996 8.9999996 0 0 1 29.691406 23.3125 L 30.4375 24.160156 A 7.9999997 7.9999997 0 0 1 33.5625 24.160156 L 34.3125 23.308594 z "
       transform="matrix(0.26458333,0,0,0.26458333,0,280.06665)"
       id="path822" />
  </g>
</svg>
